<svg width="24" height="25" viewBox="0 0 24 25" fill="none" xmlns="http://www.w3.org/2000/svg">
<g clip-path="url(#clip0_29_154)">
<path d="M14.8487 12.5006L23.7626 3.21582C24.0791 2.8861 24.0791 2.35254 23.7626 2.02294L22.059 0.247721C21.9073 0.0897807 21.7014 0.000854492 21.4865 0.000854492C21.2716 0.000854492 21.0657 0.0897807 20.9139 0.247721L12 9.53316L3.08609 0.247721C2.93437 0.0897807 2.72847 0.000854492 2.51351 0.000854492C2.2986 0.000854492 2.09265 0.0897807 1.94098 0.247721L0.237396 2.02294C-0.0791319 2.35254 -0.0791319 2.8861 0.237396 3.21582L9.15132 12.5006L0.238281 21.7843C-0.0780902 22.114 -0.0780902 22.6475 0.238281 22.9771L1.94197 24.7524C2.09359 24.9103 2.29954 24.9992 2.5145 24.9992C2.72946 24.9992 2.93535 24.9103 3.08713 24.7524L12 15.468L20.9128 24.7524C21.0646 24.9103 21.2705 24.9992 21.4854 24.9992C21.7004 24.9992 21.9063 24.9103 22.058 24.7524L23.7616 22.9771C24.078 22.6475 24.078 22.114 23.7616 21.7843L14.8487 12.5006Z" fill="#464646"/>
</g>
<defs>
<clipPath id="clip0_29_154">
<rect width="24" height="25" fill="white"/>
</clipPath>
</defs>
</svg>
